<svg width="305" height="206" viewBox="0 0 305 206" fill="none" xmlns="http://www.w3.org/2000/svg">
<g id="Triangles">
<g id="Light" opacity="0.85">
<path id="Light2" d="M128.508 120.586C116.464 112.689 116.464 95.0331 128.508 87.1356L221.283 26.3043C234.584 17.5833 252.25 27.1248 252.25 43.0296L252.25 164.692C252.25 180.597 234.584 190.138 221.283 181.417L128.508 120.586Z" fill="white"/>
<path id="Light1" d="M33.5082 120.586C21.4635 112.689 21.4635 95.0331 33.5082 87.1356L126.283 26.3043C139.584 17.5833 157.25 27.1248 157.25 43.0296L157.25 164.692C157.25 180.597 139.584 190.138 126.283 181.417L33.5082 120.586Z" fill="white"/>
</g>
<g id="Dark">
<path id="Dark1" d="M128.508 120.586C116.464 112.689 116.464 95.0331 128.508 87.1356L221.283 26.3043C234.584 17.5833 252.25 27.1248 252.25 43.0296L252.25 164.692C252.25 180.597 234.584 190.138 221.283 181.417L128.508 120.586Z" fill="#FF3860"/>
</g>
</g>
</svg>
